PathFileType	4	(X/Y/Z)	s09c0403.trc
DataRate	CameraRate	NumFrames	NumMarkers	Units	OrigDataRate	OrigDataStartFrame	OrigNumFrames
200	200	4	50	mm	200	1500	2000
Frame#	Time	racr			lacr			c7			jug			rlel			rdr			llel			ldr			s2			lic			ric			lasi			rasi			rpsi			lpsi			rgt			lgt			rth1			rth2			rth3			rth4			rlfc			rmfc			rsh1			rsh2			rsh3			rsh4			rlmal			rmmal			rcal			rtoe			rmt5			lth1			lth2			lth4			lth3			llfc			lmfc			llmal			lmmal			lcal			lmt5			lsh1			lsh2			lsh3			lsh4			ltoe			SBIKE			LBIKE			RBIKE			
		X1	Y1	Z1	X2	Y2	Z2	X3	Y3	Z3	X4	Y4	Z4	X5	Y5	Z5	X6	Y6	Z6	X7	Y7	Z7	X8	Y8	Z8	X9	Y9	Z9	X10	Y10	Z10	X11	Y11	Z11	X12	Y12	Z12	X13	Y13	Z13	X14	Y14	Z14	X15	Y15	Z15	X16	Y16	Z16	X17	Y17	Z17	X18	Y18	Z18	X19	Y19	Z19	X20	Y20	Z20	X21	Y21	Z21	X22	Y22	Z22	X23	Y23	Z23	X24	Y24	Z24	X25	Y25	Z25	X26	Y26	Z26	X27	Y27	Z27	X28	Y28	Z28	X29	Y29	Z29	X30	Y30	Z30	X31	Y31	Z31	X32	Y32	Z32	X33	Y33	Z33	X34	Y34	Z34	X35	Y35	Z35	X36	Y36	Z36	X37	Y37	Z37	X38	Y38	Z38	X39	Y39	Z39	X40	Y40	Z40	X41	Y41	Z41	X42	Y42	Z42	X43	Y43	Z43	X44	Y44	Z44	X45	Y45	Z45	X46	Y46	Z46	X47	Y47	Z47	X48	Y48	Z48	X49	Y49	Z49	X50	Y50	Z50	
1500	7.5000	757.215040	1238.574294	-106.271759	736.951885	1197.588912	-473.380228	755.223318	1287.475278	-294.716485	733.607426	1154.949783	-284.321778	575.016261	1093.366064	21.118699	693.507178	906.222964	-57.051990	497.727288	1052.360969	-537.187684	674.122033	908.417699	-450.532478	261.799426	1182.641027	-184.216823	367.556373	1165.536575	-363.010422	427.349698	1115.967317	-76.293914	389.862025	1094.470856	-354.516986	436.098686	1054.722962	-113.776469	310.900440	1196.553263	-128.884859	286.939307	1219.072161	-234.944243	353.193812	986.137131	-35.271593	316.281987	1065.766763	-405.790069	368.219405	860.298180	-55.118175	396.022879	777.994583	-70.423392	371.987849	693.043059	-77.435084	421.768210	780.849525	-96.255238	360.501584	600.858945	-108.609634	321.718592	586.574045	-202.190014	306.780311	517.332101	-68.677840	296.534012	428.903276	-81.417943	245.512969	357.830677	-74.829948	316.430487	423.295751	-115.358255	200.230095	265.232392	-71.430181	201.967925	274.034411	-146.869053	116.850428	270.716919	-108.253725	334.333152	119.506166	-133.521088	261.832730	148.079837	-61.567874	433.482828	982.692223	-406.480903	514.413863	956.988762	-398.209159	534.611936	984.514042	-380.850408	575.019910	890.271201	-400.122538	630.737571	813.147950	-387.869547	639.111465	786.600057	-285.105044	327.811844	601.277590	-410.290039	342.763241	601.338209	-337.195677	242.013053	611.366423	-373.138527	361.146776	483.452214	-432.506999	552.709595	756.849149	-410.000468	494.586522	691.586859	-405.803960	409.839364	664.481307	-408.650929	510.203465	668.647800	-378.887511	446.488741	447.503239	-362.242203	-64.558284	851.295731	-240.493000	21.173153	84.079192	-442.241073	21.197271	84.039278	-43.856178	
1501	7.5050	756.554370	1238.063531	-107.901904	737.923612	1195.104511	-474.556187	755.346425	1286.309991	-296.035183	733.165278	1153.659147	-285.380206	574.388523	1093.029104	19.782284	693.442192	906.077990	-57.565042	497.441907	1051.908108	-537.585116	673.996153	908.451102	-450.601348	262.208033	1184.545389	-183.936718	366.591872	1167.024448	-363.382692	427.802757	1117.314349	-77.313068	388.459038	1095.887373	-355.170130	436.152620	1055.756098	-115.121693	311.766651	1198.183257	-129.193202	287.446255	1220.856805	-234.751324	354.444095	987.716724	-35.118468	315.675742	1067.479357	-406.065469	369.505337	861.515264	-55.454882	397.285559	779.244881	-71.186501	373.248845	694.276184	-78.004815	422.674035	782.137925	-97.289967	361.101403	601.980142	-108.186699	322.241129	588.048665	-202.286762	305.179809	519.499357	-68.720510	292.878667	431.381114	-81.382523	240.175272	361.433601	-74.860044	313.140904	425.349381	-115.340991	192.790575	269.927581	-71.329414	194.847614	278.503642	-146.910029	110.225574	276.825293	-109.074951	324.120072	121.495654	-133.336849	252.025258	151.590473	-61.478879	432.159471	984.178228	-406.792315	512.974140	958.452242	-398.876625	534.060990	985.575587	-382.209541	573.770419	891.772514	-400.641439	630.215598	815.173826	-388.833558	639.694319	788.490494	-285.892264	332.205754	596.355083	-410.400157	346.896365	597.185333	-337.340497	245.738085	603.397786	-373.370308	369.869803	480.353620	-432.795219	553.508491	757.194597	-410.739544	496.811170	690.587194	-406.551738	412.625863	661.903686	-409.201381	513.041240	668.050070	-379.576558	456.464007	448.049675	-362.931332	-64.578916	851.305163	-240.504691	21.169912	84.073565	-442.236575	21.147379	84.047292	-43.861139	
1502	7.5100	755.887815	1237.367758	-109.359738	739.596539	1192.029505	-475.187275	755.562064	1285.190889	-296.880586	732.626613	1152.603514	-286.279428	573.631621	1092.628615	18.474481	693.372710	905.977399	-57.998117	497.143515	1051.596158	-537.660566	673.793023	908.442707	-450.589834	262.429974	1186.629322	-183.856542	365.923256	1168.603939	-364.031797	428.171331	1118.980557	-78.246716	387.193002	1096.905104	-355.917580	436.155089	1057.001522	-116.261170	312.305623	1200.134291	-129.503920	287.327713	1222.971362	-235.032572	355.295833	989.531535	-35.172675	315.148301	1069.081094	-406.297013	370.950616	862.847879	-55.820405	398.954563	780.776245	-71.975013	374.450841	695.383997	-79.818571	424.087748	783.884401	-98.296954	362.368418	602.989200	-108.531353	323.768000	589.736543	-202.510010	304.274797	521.866332	-68.935436	289.794543	434.093621	-81.579497	235.381573	365.631671	-74.969690	310.122689	427.424110	-115.458438	185.768536	275.198523	-71.263042	188.563198	283.887377	-147.084239	103.501583	283.850148	-109.613714	314.117025	123.884360	-133.116858	242.591736	155.714450	-61.428560	429.005370	985.618189	-408.127101	511.388056	959.250318	-399.543814	531.048187	986.418739	-384.028659	571.932135	892.235953	-401.300656	629.288475	816.027104	-389.793484	639.800273	789.798838	-286.730662	336.081366	590.409758	-410.532031	350.594175	592.182875	-337.398133	248.920190	594.352955	-373.560740	378.260311	476.584159	-433.082662	553.792204	756.273217	-411.623841	498.566606	688.412131	-407.165482	414.964006	658.000035	-409.642910	515.218179	666.638289	-380.301882	466.274410	448.068104	-362.882209	-64.588623	851.301247	-240.559694	21.155093	84.079917	-442.250666	21.126327	84.052142	-43.897054	
1503	7.5150	755.314375	1236.573807	-110.527652	741.125497	1188.894180	-475.723137	755.761322	1284.234912	-297.557810	731.961905	1151.331893	-287.045716	572.777851	1092.109378	17.177941	693.315574	905.959228	-58.345439	497.057752	1051.272777	-538.123760	673.482527	908.374097	-450.567121	262.615782	1188.868390	-184.138134	365.259830	1170.140746	-364.866740	428.656126	1120.910177	-78.781241	386.195521	1097.978656	-356.549062	436.122120	1058.707075	-117.026636	312.727988	1202.303712	-130.117027	287.734010	1225.003920	-235.553805	355.666952	991.616753	-35.471331	314.687929	1070.606240	-406.449207	372.640120	864.527407	-55.633416	400.959693	782.558551	-72.778226	377.627368	697.119127	-79.986507	425.931516	785.862515	-99.249045	364.676440	604.217276	-109.042953	326.303511	591.663702	-202.926133	304.217599	524.685907	-69.165647	286.893988	436.976628	-82.208323	231.124293	370.473522	-74.985018	307.951033	429.504227	-115.581853	179.413628	281.001620	-71.264439	182.472962	289.485419	-147.253679	97.427796	291.283827	-109.831551	304.198538	126.767917	-133.010490	233.520837	160.302099	-61.376462	426.963649	986.190377	-408.412444	509.574711	958.866892	-399.671771	529.962080	985.171339	-385.609675	569.527784	891.755899	-402.141969	628.249619	815.646040	-390.435856	639.728813	790.323102	-287.958314	339.592994	583.913061	-411.137127	354.279162	587.210339	-336.182497	251.802108	584.076188	-373.802647	386.095005	472.256229	-433.191430	553.567556	754.137871	-412.624490	499.517682	685.276098	-407.995856	416.799736	653.023329	-410.133255	516.818926	663.895435	-380.502196	475.865713	448.329232	-363.646651	-64.598903	851.311592	-240.597581	21.127391	84.087243	-442.278164	21.102921	84.036480	-43.922057	
